<svg viewBox="0 0 50 48" fill="none" xmlns="http://www.w3.org/2000/svg">
<path d="M2.08301 2.08301H10.4163L15.9997 29.9788C16.1902 30.938 16.712 31.7996 17.4737 32.4128C18.2355 33.026 19.1886 33.3517 20.1663 33.333H40.4163C41.3941 33.3517 42.3472 33.026 43.109 32.4128C43.8707 31.7996 44.3925 30.938 44.583 29.9788L47.9163 12.4997H12.4997M20.833 43.7497C20.833 44.9003 19.9003 45.833 18.7497 45.833C17.5991 45.833 16.6663 44.9003 16.6663 43.7497C16.6663 42.5991 17.5991 41.6663 18.7497 41.6663C19.9003 41.6663 20.833 42.5991 20.833 43.7497ZM43.7497 43.7497C43.7497 44.9003 42.8169 45.833 41.6663 45.833C40.5158 45.833 39.583 44.9003 39.583 43.7497C39.583 42.5991 40.5158 41.6663 41.6663 41.6663C42.8169 41.6663 43.7497 42.5991 43.7497 43.7497Z" stroke-width="4" stroke-linecap="round" stroke-linejoin="round"/>
</svg>
